<svg id="Component_13_1" data-name="Component 13 – 1" xmlns="http://www.w3.org/2000/svg" width="70" height="70" viewBox="0 0 70 70">
  <rect id="Rectangle_158" data-name="Rectangle 158" width="70" height="70" rx="20" fill="#ffefdc"/>
  <path id="Path_60" data-name="Path 60" d="M7849-12192a3,3,0,0,1-3-3v-15a3,3,0,0,1,3-3h3v-3h1.6v3h8.8v-3h1.6v3h3a3,3,0,0,1,3,3v15a3,3,0,0,1-3,3Zm-1.4-3a1.4,1.4,0,0,0,1.4,1.4h18a1.4,1.4,0,0,0,1.4-1.4v-9.4h-20.8Zm20.8-11v-4a1.4,1.4,0,0,0-1.4-1.4h-18a1.4,1.4,0,0,0-1.4,1.4v4Z" transform="translate(-7822.998 12239.001)" fill="#f07e00"/>
</svg>
