<svg xmlns="http://www.w3.org/2000/svg" width="20" height="22" viewBox="0 0 20 22">
  <path id="Path_71" data-name="Path 71" d="M137.491,15.053a8.242,8.242,0,0,0-2.784,1.423,14.737,14.737,0,0,1-5.434,2.518c0,.065.009.131.013.192.01.147.021.313.031.491a19.337,19.337,0,0,0,3.264,9.709,12.565,12.565,0,0,0,4.905,4.316,12.587,12.587,0,0,0,4.849-4.313,19.428,19.428,0,0,0,3.258-9.725l0-.047c.015-.146.031-.283.046-.413.008-.066.016-.136.023-.206a14.869,14.869,0,0,1-5.493-2.549,8.2,8.2,0,0,0-2.683-1.4m0-1.6c2.488.069,5.126,3.539,8.82,4.025,1.432.208,1.206.833,1.055,2.29-.6,8.536-5.5,14.158-9.875,15.684-4.448-1.527-9.348-7.148-9.951-15.684-.075-1.457-.3-2.082,1.055-2.29h0C132.291,16.99,134.93,13.52,137.493,13.451Z" transform="translate(-127.481 -13.451)" fill="#f07e00"/>
</svg>
