<svg id="Component_5_1" data-name="Component 5 – 1" xmlns="http://www.w3.org/2000/svg" width="70" height="70" viewBox="0 0 70 70">
  <rect id="Rectangle_158" data-name="Rectangle 158" width="70" height="70" rx="20" fill="#ffefdc"/>
  <path id="Path_63" data-name="Path 63" d="M6480.13-11613.83a12.014,12.014,0,0,1,12-12,12.015,12.015,0,0,1,12,12,12.015,12.015,0,0,1-12,12A12.013,12.013,0,0,1,6480.13-11613.83Zm1.649,0a10.362,10.362,0,0,0,10.351,10.351,10.362,10.362,0,0,0,10.35-10.351,10.362,10.362,0,0,0-10.35-10.351A10.363,10.363,0,0,0,6481.779-11613.83Zm12.652,3.471-2.882-2.883h0a.817.817,0,0,1-.247-.589v-6.877a.825.825,0,0,1,.825-.824.826.826,0,0,1,.826.824v6.533l2.648,2.647a.825.825,0,0,1,0,1.168.825.825,0,0,1-.584.241A.824.824,0,0,1,6494.432-11610.359Z" transform="translate(-6457.13 11648.83)" fill="#f07e00"/>
</svg>
