<svg xmlns="http://www.w3.org/2000/svg" width="19" height="19" viewBox="0 0 19 19">
  <path id="Path_65" data-name="Path 65" d="M6874.479-11110a20.978,20.978,0,0,1-7.2-1.168,14.725,14.725,0,0,1-5.441-3.427,15.452,15.452,0,0,1-3.476-5.527,23.179,23.179,0,0,1-1.357-7.37,1.767,1.767,0,0,1,.387-1.033l.015-.021a1.466,1.466,0,0,1,.79-.435l0-.02h4.413a1.54,1.54,0,0,1,.953.355,1.455,1.455,0,0,1,.583.954v.02a11.84,11.84,0,0,0,.606,3.547c.074.268.142.52.2.762a.633.633,0,0,1-.155.6l-2.1,2.135a13.793,13.793,0,0,0,5.261,5.363l2.112-2.146a.584.584,0,0,1,.415-.175.666.666,0,0,1,.144.019l.221.059a16.646,16.646,0,0,0,3.691.685h.028a1.4,1.4,0,0,1,.983.438,1.45,1.45,0,0,1,.454,1v0c-.006.746-.01,1.489-.015,2.235l-.013,1.659a1.479,1.479,0,0,1-.444,1.026,1.757,1.757,0,0,1-.979.466l-.021,0Zm-16.088-17.762a.4.4,0,0,0-.13.064c-.011.016-.02.03-.031.044a.228.228,0,0,0-.048.1c.165,5.192,1.673,9.256,4.476,12.075s6.788,4.256,11.823,4.256h.013a.4.4,0,0,0,.207-.109.337.337,0,0,0,.091-.172l.028-3.858a.337.337,0,0,0-.091-.151.3.3,0,0,0-.167-.092h-.024a15.519,15.519,0,0,1-3.775-.672l-.1-.028-2.205,2.249a.591.591,0,0,1-.417.171.539.539,0,0,1-.3-.085,15.614,15.614,0,0,1-6.307-6.426.642.642,0,0,1,.091-.76l2.192-2.235c-.035-.124-.069-.252-.106-.383a13,13,0,0,1-.637-3.758.71.71,0,0,0-.13-.136.454.454,0,0,0-.24-.108h-4.169Z" transform="translate(-6857 11129.001)" fill="#f07e00"/>
</svg>
