<svg xmlns="http://www.w3.org/2000/svg" width="34" height="23.999" viewBox="0 0 34 23.999">
  <path id="Path_70" data-name="Path 70" d="M-20963.094-8490a7.825,7.825,0,0,1-7.906-7.742,7.8,7.8,0,0,1,7.176-7.705,9.518,9.518,0,0,1,2.832-5.721A9.97,9.97,0,0,1-20954-8514a9.944,9.944,0,0,1,6.979,2.831,9.57,9.57,0,0,1,2.832,8h.467a6.641,6.641,0,0,1,6.721,6.584,6.64,6.64,0,0,1-6.721,6.579Zm3.256-20.036a7.944,7.944,0,0,0-2.363,4.773l-.152,1.289-1.32.121a6.282,6.282,0,0,0-4.043,1.958,6.057,6.057,0,0,0-1.65,4.152,6.215,6.215,0,0,0,6.273,6.143h19.373a5.111,5.111,0,0,0,3.6-1.453,4.921,4.921,0,0,0,1.482-3.526,4.9,4.9,0,0,0-1.482-3.525,5.1,5.1,0,0,0-3.6-1.458h-2.311l.221-1.79a7.941,7.941,0,0,0-2.365-6.684,8.255,8.255,0,0,0-5.822-2.363h-.082A8.3,8.3,0,0,0-20959.838-8510.036Zm5.307,15.589-4.357-3.873a.79.79,0,0,1-.061-1.105.849.849,0,0,1,1.129-.048l3.033,2.7v-8.337a.779.779,0,0,1,.789-.773.784.784,0,0,1,.791.773v8.337l3.031-2.7a.853.853,0,0,1,1.123.048.774.774,0,0,1-.059,1.105l-4.354,3.873a.7.7,0,0,1-.533.2A.89.89,0,0,1-20954.531-8494.447Z" transform="translate(20971 8513.999)" fill="#f07e00"/>
</svg>
