<svg id="Component_4_1" data-name="Component 4 – 1" xmlns="http://www.w3.org/2000/svg" width="70" height="70" viewBox="0 0 70 70">
  <rect id="Rectangle_158" data-name="Rectangle 158" width="70" height="70" rx="20" fill="#ffefdc"/>
  <path id="Path_53" data-name="Path 53" d="M173.755,14h-8.786V25.7h-3.685v2.248h3.686v2.829h-3.686v2.248h3.686V38h2.377V33.023h7.905V30.775h-7.905V27.92h6.41a5.4,5.4,0,0,0,5.528-5.229V19.23A5.4,5.4,0,0,0,173.755,14Zm3.151,8.716a3.075,3.075,0,0,1-3.151,2.981h-6.41V16.249h6.41a3.075,3.075,0,0,1,3.151,2.981Z" transform="translate(-135.283 9)" fill="#f07e00"/>
</svg>
