<svg xmlns="http://www.w3.org/2000/svg" width="23" height="24" viewBox="0 0 23 24">
  <path id="QIWI_logo" d="M16.21,21.043a9.752,9.752,0,0,1,6.659,2.878c.244.218.569-.053.355-.324a10.3,10.3,0,0,0-6.809-4.119,7.32,7.32,0,0,1-5.054-3.816c-.192-.334-.279-.275-.3.155a9.577,9.577,0,0,0,.132,1.908c-.109,0-.218,0-.329,0a7.056,7.056,0,1,1,6.991-7.056,7.075,7.075,0,0,1-.045.821,10.381,10.381,0,0,0-2.219-.042c-.265.023-.227.148-.027.185a4.908,4.908,0,0,1,4.261,4.49.063.063,0,0,0,.117.026A10.7,10.7,0,0,0,10.868,0a10.674,10.674,0,0,0,0,21.347C12.417,21.347,13.955,21.043,16.21,21.043ZM17,17.168c.471.4.613.878.365,1.215a.763.763,0,0,1-.632.287,1.115,1.115,0,0,1-.719-.263,1.026,1.026,0,0,1-.274-1.336.62.62,0,0,1,.5-.211A1.194,1.194,0,0,1,17,17.168Zm2.171-1.02c.069.468-.077.661-.224.661s-.362-.189-.6-.564a1.154,1.154,0,0,1-.2-1.007.328.328,0,0,1,.44-.126C18.973,15.262,19.126,15.869,19.168,16.148Z" transform="translate(-0.294)" fill="#ff8c00" fill-rule="evenodd"/>
</svg>
