<svg xmlns="http://www.w3.org/2000/svg" width="33" height="22" viewBox="0 0 33 22">
  <path id="Path_92" data-name="Path 92" d="M-5333.27,6165a2.211,2.211,0,0,1-1.512-.6l-1.486-1.382-1.064,1.117a2.234,2.234,0,0,1-1.611.688,2.213,2.213,0,0,1-1.538-.614l-.275-.263a2.14,2.14,0,0,1-.5-.728,2.218,2.218,0,0,1-1.022.25,2.215,2.215,0,0,1-1.537-.614l-.277-.264a2.176,2.176,0,0,1-.555-.869,2.221,2.221,0,0,1-.662.1,2.222,2.222,0,0,1-1.539-.614l-.276-.264a2.235,2.235,0,0,1-.688-1.614,2.183,2.183,0,0,1,.174-.845,2.171,2.171,0,0,1-.758-.466l-.273-.263a2.229,2.229,0,0,1-.691-1.614,2.214,2.214,0,0,1,.614-1.538l1.211-1.271-2.7-2.315a2.2,2.2,0,0,1-.771-1.673,2.192,2.192,0,0,1,.558-1.464l3.061-3.448a2.662,2.662,0,0,1,.993-.688,3.083,3.083,0,0,1,1.166-.229,2.613,2.613,0,0,1,1.037.2l1.681.721a2.821,2.821,0,0,0,1.049.181h.03a2.84,2.84,0,0,0,1.048-.179l1.681-.722a4.007,4.007,0,0,1,1.551-.287,3.827,3.827,0,0,1,1.694.353l.279.14c.229.116.436.217.6.3l.193-.137a3.366,3.366,0,0,1,1.921-.559,3.124,3.124,0,0,1,1.375.292l2.467,1.2a1.89,1.89,0,0,0,.792.156h.025a2.1,2.1,0,0,0,1.039-.253l2.521-1.576A2.333,2.333,0,0,1-5323,6143h0a2.4,2.4,0,0,1,1.9.91l2.583,3.323a2.5,2.5,0,0,1,.511,1.54,2.533,2.533,0,0,1-.628,1.693l-4.253,4.729.343.319a2.229,2.229,0,0,1,.708,1.635,2.224,2.224,0,0,1-.592,1.517l-.26.279a2.171,2.171,0,0,1-1.133.646,2.114,2.114,0,0,1,.022.3,2.214,2.214,0,0,1-.594,1.519l-.258.277a2.237,2.237,0,0,1-1.632.712,1.94,1.94,0,0,1-.348-.034,2.185,2.185,0,0,1-.532,1.021l-.258.278a2.228,2.228,0,0,1-1.632.711,2.222,2.222,0,0,1-1.515-.593l-.414-.384a2.123,2.123,0,0,1-.4.616l-.261.279a2.224,2.224,0,0,1-1.626.71Zm-9.547-13.375.336.322a2.207,2.207,0,0,1,.606,1.277,2.219,2.219,0,0,1,1.532.614l.275.265a2.231,2.231,0,0,1,.689,1.614,2.119,2.119,0,0,1-.068.53,2.235,2.235,0,0,1,.91.524l.291.278.012.018a4.488,4.488,0,0,1,.646,1.4,2.2,2.2,0,0,1,1.47.612l.277.263a2.231,2.231,0,0,1,.688,1.614,2.215,2.215,0,0,1-.186.873l1.581,1.473a.728.728,0,0,0,.5.193.729.729,0,0,0,.533-.231l.259-.279a.71.71,0,0,0,.191-.492.723.723,0,0,0-.2-.5l-1.954-1.813-.131-.134.126-.138.891-.964.14.14,3.867,3.588a.712.712,0,0,0,.5.193.719.719,0,0,0,.534-.23l.26-.28a.712.712,0,0,0,.192-.494.718.718,0,0,0-.222-.523l-4.017-3.734,1.021-1.1,4.509,4.19a.726.726,0,0,0,.5.193.721.721,0,0,0,.534-.231l.258-.279a.725.725,0,0,0,.193-.5.726.726,0,0,0-.232-.532l-4.816-4.486,1.022-1.1,4.507,4.19a.717.717,0,0,0,.5.193.727.727,0,0,0,.536-.23l.258-.279a.726.726,0,0,0,.194-.494.731.731,0,0,0-.231-.533l-3.282-3.05a28.049,28.049,0,0,0-2.208-1.813l-2.836-2.043a1.57,1.57,0,0,0-.876-.247h-.021a1.471,1.471,0,0,0-.739.179l-1.026.619a2.334,2.334,0,0,1-1.208.332,2.415,2.415,0,0,1-1.927-.949l-.227-.307h0a2.2,2.2,0,0,1-.434-1.308,2.194,2.194,0,0,1,.93-1.793l1.446-1.022-.155-.078a2.454,2.454,0,0,0-1.005-.194h-.031a2.569,2.569,0,0,0-.948.166l-1.682.722a4.261,4.261,0,0,1-1.652.3,4.263,4.263,0,0,1-1.654-.3l-1.682-.72a1.126,1.126,0,0,0-.446-.083,1.631,1.631,0,0,0-.6.119,1.187,1.187,0,0,0-.44.3l-3.062,3.446a.7.7,0,0,0-.177.467.694.694,0,0,0,.245.532l2.761,2.368.528-.553a2.235,2.235,0,0,1,1.611-.688A2.214,2.214,0,0,1-5342.816,6151.625Zm4.632,8.569-1.562,1.641a.71.71,0,0,0-.2.5.726.726,0,0,0,.224.526l.275.263a.718.718,0,0,0,.5.2.724.724,0,0,0,.529-.224l1.563-1.64a.728.728,0,0,0,.2-.5.731.731,0,0,0-.224-.527l-.277-.263a.724.724,0,0,0-.5-.2A.726.726,0,0,0-5338.185,6160.195Zm-2.372-2.351-2.565,2.693a.716.716,0,0,0-.156.445.716.716,0,0,0,.224.526l.277.264a.711.711,0,0,0,.5.2.724.724,0,0,0,.527-.223l2.477-2.6a.732.732,0,0,0,.2-.5.722.722,0,0,0-.224-.525l-.275-.263a.716.716,0,0,0-.5-.2A.732.732,0,0,0-5340.556,6157.844Zm-1.829-2.913c-.2.209-2.4,2.512-3.726,3.9a.72.72,0,0,0-.2.5.721.721,0,0,0,.21.516l.014.012.277.264a.712.712,0,0,0,.5.2.729.729,0,0,0,.53-.225l3.7-3.882a.715.715,0,0,0,.2-.5.721.721,0,0,0-.224-.527l-.276-.263a.712.712,0,0,0-.5-.2A.724.724,0,0,0-5342.385,6154.931Zm-2.5-2.194-2.775,2.91a.716.716,0,0,0-.2.5.718.718,0,0,0,.224.524l.277.263a.724.724,0,0,0,.5.2.735.735,0,0,0,.409-.126l2.971-3.111a.727.727,0,0,0,.121-.4,1.464,1.464,0,0,0-.239-.542l-.259-.248a.719.719,0,0,0-.5-.2A.721.721,0,0,0-5344.882,6152.736Zm13.874-4.249,2.836,2.045a29.463,29.463,0,0,1,2.354,1.93l1.84,1.709,4.24-4.714a1.044,1.044,0,0,0,.239-.684,1.009,1.009,0,0,0-.194-.617l-2.583-3.323a.921.921,0,0,0-.718-.331.851.851,0,0,0-.454.121l-2.521,1.578a3.532,3.532,0,0,1-1.849.481,3.325,3.325,0,0,1-1.457-.305l-2.467-1.2a1.684,1.684,0,0,0-.706-.142h-.028a1.947,1.947,0,0,0-1.04.284l-3.032,2.141a.694.694,0,0,0-.295.568.69.69,0,0,0,.133.4l.006.008.226.305a.91.91,0,0,0,.721.344.835.835,0,0,0,.437-.116l1.023-.619a2.993,2.993,0,0,1,1.525-.4A3.027,3.027,0,0,1-5331.008,6148.487Z" transform="translate(5351 -6143)" fill="#107af1"/>
</svg>
