<svg id="Component_6_1" data-name="Component 6 – 1" xmlns="http://www.w3.org/2000/svg" width="70" height="70" viewBox="0 0 70 70">
  <rect id="Rectangle_158" data-name="Rectangle 158" width="70" height="70" rx="20" fill="#ffefdc"/>
  <path id="Path_64" data-name="Path 64" d="M253.276,167.327a1.835,1.835,0,1,1-.918-1.531,1.838,1.838,0,0,1,.918,1.531Zm9.651-.071h0a1.847,1.847,0,0,0,1.807,1.9,1.9,1.9,0,0,0,1.859-1.842,1.855,1.855,0,0,0-1.821-1.828,1.831,1.831,0,0,0-1.84,1.771Zm0-6.68h0a1.841,1.841,0,0,0,1.821,1.842,1.869,1.869,0,0,0,1.859-1.842,1.846,1.846,0,0,0-1.821-1.828,1.822,1.822,0,0,0-1.854,1.833Zm-4.818-1.828a1.8,1.8,0,0,0-1.849,1.837,1.835,1.835,0,1,0,3.666,0,1.8,1.8,0,0,0-1.816-1.837Zm0-6.722a1.8,1.8,0,0,0-1.849,1.837,1.835,1.835,0,1,0,3.666,0,1.8,1.8,0,0,0-1.816-1.837Zm-6.639,6.722a1.8,1.8,0,0,0-1.85,1.837,1.835,1.835,0,1,0,3.666,0,1.8,1.8,0,0,0-1.816-1.837Zm0-6.722a1.8,1.8,0,0,0-1.85,1.837,1.835,1.835,0,1,0,3.666,0,1.8,1.8,0,0,0-1.816-1.837Zm11.467,1.851a1.855,1.855,0,0,0,1.811,1.8,1.9,1.9,0,0,0,1.85-1.8,1.835,1.835,0,1,0-3.666,0Zm-4.828,11.588a1.808,1.808,0,0,0-1.84,1.8,1.835,1.835,0,1,0,3.666.057,1.808,1.808,0,0,0-1.826-1.861Zm0,6.722a1.808,1.808,0,0,0-1.84,1.8,1.835,1.835,0,1,0,3.666.057,1.808,1.808,0,0,0-1.826-1.861Z" transform="translate(-222.606 -128.947)" fill="#f07e00"/>
</svg>
