<svg xmlns="http://www.w3.org/2000/svg" width="20" height="24" viewBox="0 0 20 24">
  <path id="Контур_58" data-name="Контур 58" d="M161.952,37h-.765V34.126a6.148,6.148,0,0,0-12.3,0v2.85h-.765a3.064,3.064,0,0,0-3.087,3.01v9A3.063,3.063,0,0,0,148.126,52h13.825a3.064,3.064,0,0,0,3.087-3.01v-9A3.041,3.041,0,0,0,161.952,37Zm-11.53,0V34.126a4.617,4.617,0,1,1,9.235,0v2.85h-9.235V37Zm13.06,11.987a1.509,1.509,0,0,1-1.53,1.492H148.127a1.509,1.509,0,0,1-1.53-1.492v-9a1.509,1.509,0,0,1,1.53-1.492h13.825a1.509,1.509,0,0,1,1.53,1.492ZM156.569,43A1.493,1.493,0,0,1,155.8,44.3h0v2.451a.765.765,0,0,1-1.53,0V44.3h0A1.493,1.493,0,0,1,153.509,43a1.509,1.509,0,0,1,1.53-1.492A1.476,1.476,0,0,1,156.569,43Z" transform="translate(-145.039 -28)" fill="#f07e00"/>
</svg>
