<svg xmlns="http://www.w3.org/2000/svg" width="19" height="19" viewBox="0 0 19 19">
  <path id="Path_63" data-name="Path 63" d="M6480.13-11616.33a9.511,9.511,0,0,1,9.5-9.5,9.512,9.512,0,0,1,9.5,9.5,9.512,9.512,0,0,1-9.5,9.5A9.511,9.511,0,0,1,6480.13-11616.33Zm1.306,0a8.2,8.2,0,0,0,8.194,8.194,8.2,8.2,0,0,0,8.194-8.194,8.2,8.2,0,0,0-8.194-8.194A8.2,8.2,0,0,0,6481.436-11616.33Zm10.017,2.747-2.282-2.282h0a.644.644,0,0,1-.2-.466v-5.444a.653.653,0,0,1,.653-.652.654.654,0,0,1,.654.652v5.172l2.1,2.1a.653.653,0,0,1,0,.924.652.652,0,0,1-.463.191A.651.651,0,0,1,6491.452-11613.583Z" transform="translate(-6480.13 11625.83)" fill="#f07e00"/>
</svg>
