<svg id="Component_10_1" data-name="Component 10 – 1" xmlns="http://www.w3.org/2000/svg" width="70" height="70" viewBox="0 0 70 70">
  <rect id="Rectangle_158" data-name="Rectangle 158" width="70" height="70" rx="20" fill="#ffefdc"/>
  <path id="Path_66" data-name="Path 66" d="M6266.492-11105.205a10.5,10.5,0,0,1-5.4-2.885,10.5,10.5,0,0,1-2.886-5.4,10.507,10.507,0,0,1,.6-6.092,10.489,10.489,0,0,1,3.886-4.732,10.515,10.515,0,0,1,5.857-1.775h0a.718.718,0,0,1,.5.2.712.712,0,0,1,.2.5v9.146h9.146a.692.692,0,0,1,.492.2.7.7,0,0,1,.2.492,10.5,10.5,0,0,1-1.775,5.863,10.54,10.54,0,0,1-4.731,3.885,10.462,10.462,0,0,1-4.038.8A10.423,10.423,0,0,1,6266.492-11105.205Zm-4.577-16.576a9.1,9.1,0,0,0-2.448,6.434,9.1,9.1,0,0,0,2.729,6.314,9.1,9.1,0,0,0,6.357,2.633,9.124,9.124,0,0,0,6.32-2.543,9.113,9.113,0,0,0,2.8-5.91h-9.123a.7.7,0,0,1-.492-.205.7.7,0,0,1-.2-.494v-9.117A9.09,9.09,0,0,0,6261.915-11121.781Zm9.539,4.025a.7.7,0,0,1-.492-.205.7.7,0,0,1-.2-.5v-9.844a.7.7,0,0,1,.7-.7,10.477,10.477,0,0,1,4.035.8,10.474,10.474,0,0,1,3.419,2.287,10.491,10.491,0,0,1,2.289,3.42,10.492,10.492,0,0,1,.8,4.031.7.7,0,0,1-.2.5.705.705,0,0,1-.5.205Zm.7-1.4h8.434a9.131,9.131,0,0,0-2.655-5.779,9.123,9.123,0,0,0-5.779-2.654Z" transform="translate(-6235.001 11152)" fill="#f07e00"/>
</svg>
