<svg xmlns="http://www.w3.org/2000/svg" width="19.002" height="19" viewBox="0 0 19.002 19">
  <path id="Без_названия" data-name="Без названия" d="M10.637,17.8c.075-.012.3-.168.465-.617l.02-.051L17.668,1.388,1.875,7.848c-.477.174-.625.438-.619.532,0,.052.128.192.478.273L8.78,10.28,10.4,17.322a.814.814,0,0,0,.233.478M10.63,19c-.6,0-1.177-.461-1.4-1.409L7.779,11.28,1.465,9.823c-1.912-.442-1.844-2.431,0-3.1L17.771.05A.985.985,0,0,1,19.01,1.288l-6.78,16.3A1.854,1.854,0,0,1,10.63,19Z" transform="translate(-0.056 -0.001)" fill="#f07e00"/>
</svg>
