<svg xmlns="http://www.w3.org/2000/svg" width="30.602" height="24.602" viewBox="0 0 30.602 24.602">
  <path id="Path_71" data-name="Path 71" d="M-17738.91-9995.4h-15.584a.679.679,0,0,1-.215-.035h-6.494a.79.79,0,0,1-.793-.758l0-.014v-4.667a4.827,4.827,0,0,1,.963-2.866,4.7,4.7,0,0,1,2.006-1.533,3.846,3.846,0,0,1-.986-2.541,3.779,3.779,0,0,1,1.686-3.174,3.693,3.693,0,0,1,2.051-.624,3.666,3.666,0,0,1,1.5.316,3.765,3.765,0,0,1,2.068,2.336,6.9,6.9,0,0,1,2.482-1.315,5.566,5.566,0,0,1-1.926-4.439,5.554,5.554,0,0,1,2.84-4.614,5.461,5.461,0,0,1,2.607-.673,5.392,5.392,0,0,1,2.768.763,5.56,5.56,0,0,1,2.688,4.707,5.657,5.657,0,0,1-1.924,4.253,6.961,6.961,0,0,1,2.5,1.314,3.774,3.774,0,0,1,1.141-1.761,3.7,3.7,0,0,1,2.42-.918h.006a3.765,3.765,0,0,1,2.723,1.226,3.856,3.856,0,0,1,1,2.831,3.9,3.9,0,0,1-.973,2.34,4.7,4.7,0,0,1,1.984,1.511,4.8,4.8,0,0,1,.977,2.831v4.672a.8.8,0,0,1-.795.8h-6.5a.673.673,0,0,1-.211.035Zm-15.748-.334a.514.514,0,0,0,.164.036h15.584a.514.514,0,0,0,.164-.036h6.553a.5.5,0,0,0,.5-.5v0a.5.5,0,0,1-.5.5h-6.553a.514.514,0,0,1-.164.036h-15.584a.514.514,0,0,1-.164-.036h0Zm-7.039-.473a.492.492,0,0,0,.49.473A.494.494,0,0,1-17761.7-9996.206Zm10.85-.441.031-4.226Zm11.938-7.547a3.327,3.327,0,0,0-1.711.977,3.389,3.389,0,0,0-.879,1.778,3.345,3.345,0,0,0-.053.593v0a3.345,3.345,0,0,1,.053-.593,3.389,3.389,0,0,1,.879-1.778,3.327,3.327,0,0,1,1.711-.977,3.6,3.6,0,0,1,.785-.089h2.082a3.382,3.382,0,0,1,2.4,1.012,3.468,3.468,0,0,1,1,2.425,3.468,3.468,0,0,0-1-2.425,3.382,3.382,0,0,0-2.4-1.012h-2.082A3.6,3.6,0,0,0-17738.91-10004.194Zm-20.795.9a3.465,3.465,0,0,0-1,2.425l-.01,4.119.01-4.119a3.465,3.465,0,0,1,1-2.425,3.356,3.356,0,0,1,2.4-1.008h2.082a3.386,3.386,0,0,1,.734.076,3.4,3.4,0,0,1,1.891,1.208,3.4,3.4,0,0,0-1.891-1.208,3.386,3.386,0,0,0-.734-.076h-2.082A3.356,3.356,0,0,0-17759.705-10003.3Zm6.967-3.321a3.9,3.9,0,0,1-.25.6,3.7,3.7,0,0,1-.32.508l-.014.04c-.025.076-.053.156-.08.236.059.027.115.054.17.085a2.964,2.964,0,0,1,.393.2l0,0,.268.174c.08.058.16.12.227.178a1.177,1.177,0,0,1,.1.076c.084.067.168.143.244.21l.014.013c.1.1.205.205.3.313a.4.4,0,0,0,.059.075,2.114,2.114,0,0,1,.143.174c.084.121.168.241.244.366a3.1,3.1,0,0,1,.16.271,3.887,3.887,0,0,1,.188.415,2.489,2.489,0,0,1,.115.285,3.037,3.037,0,0,1,.135.5.389.389,0,0,0,.014.04,1.388,1.388,0,0,1,.049.223,5.571,5.571,0,0,1,.066.762l-.031,3.932h7.627v-3.873a4.8,4.8,0,0,1,.066-.785.9.9,0,0,1,.041-.146.245.245,0,0,0,.014-.049v-.022l0-.027a4.07,4.07,0,0,1,.129-.5,2.507,2.507,0,0,1,.117-.285c.043-.116.094-.231.146-.344v0l.035-.067a1.89,1.89,0,0,1,.117-.2.383.383,0,0,1,.043-.066l.006-.01.23-.356c.049-.062.1-.12.143-.174a.627.627,0,0,0,.059-.071l.014-.014.289-.3.24-.219c.125-.1.236-.183.336-.249l.012-.009.273-.174a4.206,4.206,0,0,1,.379-.2l0,0,.174-.08c-.027-.085-.059-.169-.09-.254a3.862,3.862,0,0,1-.352-.544l-.035-.071v-.076a3.9,3.9,0,0,1-.174-.45,5.336,5.336,0,0,0-4.4-2.331h-3.3A5.317,5.317,0,0,0-17752.738-10006.619Zm13.895,2.715a3.02,3.02,0,0,0-1.561.892,3.1,3.1,0,0,0-.8,1.622,3.166,3.166,0,0,0-.051.544v3.812h8.311v-3.812a3.149,3.149,0,0,0-.914-2.215,3.045,3.045,0,0,0-2.184-.919h-2.092A3.441,3.441,0,0,0-17738.844-10003.9Zm-20.652.815a3.147,3.147,0,0,0-.908,2.216l-.006,3.82h8.26v-3.843a3.179,3.179,0,0,0-.686-1.938,3.111,3.111,0,0,0-1.721-1.1,3.081,3.081,0,0,0-.668-.071h-2.082A3.048,3.048,0,0,0-17759.5-10003.089Zm7.645,2.193Zm11.631-5.22a3.576,3.576,0,0,0,.348.539,4.9,4.9,0,0,1,.191.575,4.9,4.9,0,0,0-.191-.575,3.576,3.576,0,0,1-.348-.539Zm-12.789-.638a3.885,3.885,0,0,1-.246.6,2.993,2.993,0,0,1-.348.535v.044c-.062.17-.119.339-.164.513.045-.174.1-.343.164-.513v-.044a2.993,2.993,0,0,0,.348-.535,3.885,3.885,0,0,0,.246-.6,5.623,5.623,0,0,1,4.613-2.447h3.3a5.633,5.633,0,0,1,4.672,2.5,3.037,3.037,0,0,0,.205.518,3.037,3.037,0,0,1-.205-.518,5.624,5.624,0,0,0-4.672-2.5h-3.3A5.623,5.623,0,0,0-17753.01-10006.753Zm19.324-.852a3.559,3.559,0,0,1-1.23,2.483,3.559,3.559,0,0,0,1.23-2.483q.006-.089.006-.179Q-17733.68-10007.694-17733.686-10007.6Zm-26.029-.209a3.534,3.534,0,0,0,1.24,2.665,3.534,3.534,0,0,1-1.24-2.665Zm21.094-1.556a2.207,2.207,0,0,0-.609,1.564v0a2.141,2.141,0,0,0,.074.583l.01.041v.062a2.151,2.151,0,0,0,.424.74l.07.085v.045a2.142,2.142,0,0,0,1.525.664,2.208,2.208,0,0,0,1.811-1.146,2.266,2.266,0,0,0,0-2.171,2.2,2.2,0,0,0-1.807-1.146A2.159,2.159,0,0,0-17738.621-10009.369Zm-18.73-.361a2.186,2.186,0,0,0-1.074,1.886v.031a2.2,2.2,0,0,0,.637,1.556,2.149,2.149,0,0,0,1.533.65h.01a2.076,2.076,0,0,0,1.6-.749l0,0a1.823,1.823,0,0,0,.273-.405l0,0a1.97,1.97,0,0,0,.17-.415.465.465,0,0,1,.012-.1,2.961,2.961,0,0,0,.068-.557,2.191,2.191,0,0,0-1.08-1.886,2.125,2.125,0,0,0-1.074-.294A2.145,2.145,0,0,0-17757.352-10009.73Zm18.4,3.6v-.044Zm-.494-.94v-.066Zm-14.447-.085a.094.094,0,0,1-.006-.032A.094.094,0,0,0-17753.893-10007.154Zm14.363-.565a.617.617,0,0,1,0-.085A.617.617,0,0,0-17739.529-10007.72Zm4.475-1.324a2.576,2.576,0,0,1,.314,1.232,2.576,2.576,0,0,0-.314-1.232,2.5,2.5,0,0,0-2.064-1.3,2.466,2.466,0,0,0-1.719.767,2.523,2.523,0,0,0-.691,1.708,2.523,2.523,0,0,1,.691-1.708,2.466,2.466,0,0,1,1.719-.767A2.5,2.5,0,0,1-17735.055-10009.044Zm-22.443-.945a2.472,2.472,0,0,0-1.227,2.145v0a2.472,2.472,0,0,1,1.227-2.145,2.412,2.412,0,0,1,1.225-.334,2.419,2.419,0,0,1,1.227.334,2.484,2.484,0,0,1,1.227,2.145,2.484,2.484,0,0,0-1.227-2.145,2.419,2.419,0,0,0-1.227-.334A2.412,2.412,0,0,0-17757.5-10009.989Zm13.635-.143a5.346,5.346,0,0,0,2.311-4.4A5.346,5.346,0,0,1-17743.863-10010.132Zm-5.678,0a5.222,5.222,0,0,1-2.322-4.316A5.222,5.222,0,0,0-17749.541-10010.132Zm.137-7.109a3.891,3.891,0,0,0-1.162,2.736,3.949,3.949,0,0,0,1.1,2.777,3.872,3.872,0,0,0,2.711,1.2h.107a3.822,3.822,0,0,0,2.7-1.168,3.918,3.918,0,0,0,1.109-2.76,3.921,3.921,0,0,0-1.127-2.754,3.846,3.846,0,0,0-2.715-1.15h-.023A3.807,3.807,0,0,0-17749.4-10017.241Zm2.729-1.418a4.161,4.161,0,0,1,2.924,1.239,4.232,4.232,0,0,1,1.213,2.964,4.232,4.232,0,0,0-1.213-2.964,4.161,4.161,0,0,0-2.924-1.239h0Zm-2.937,1.2a4.227,4.227,0,0,0-1.256,2.947,4.227,4.227,0,0,1,1.256-2.947Z" transform="translate(17762 10020.001)" fill="#f07e00"/>
</svg>
