<svg xmlns="http://www.w3.org/2000/svg" width="24.004" height="24" viewBox="0 0 24.004 24">
  <path id="Контур_49" data-name="Контур 49" d="M17944-13103a12,12,0,0,1-12-12,12,12,0,0,1,12-12,12.007,12.007,0,0,1,12.008,12,12.006,12.006,0,0,1-12.008,12Zm0-1.6a2.064,2.064,0,0,0,1.309-.564,6.633,6.633,0,0,0,1.5-2.065,14.682,14.682,0,0,0,1.156-3.43,21.069,21.069,0,0,0,.422-3.543h-8.771a20.673,20.673,0,0,0,.422,3.543,14.777,14.777,0,0,0,1.146,3.43,6.7,6.7,0,0,0,1.512,2.065,2.067,2.067,0,0,0,1.3.564Zm3.455-.588c.2-.07.4-.146.594-.227a10.376,10.376,0,0,0,3.311-2.232,10.388,10.388,0,0,0,2.223-3.3,10.238,10.238,0,0,0,.791-3.252h-4.379A17.1,17.1,0,0,1,17947.451-13105.186Zm-13.039-5.763a10.476,10.476,0,0,0,2.23,3.3,10.411,10.411,0,0,0,3.309,2.232c.193.081.395.156.6.227a17.036,17.036,0,0,1-2.531-9.015h-4.389A10.553,10.553,0,0,0,17934.412-13110.948Zm19.957-4.848a10.2,10.2,0,0,0-.791-3.249,10.368,10.368,0,0,0-2.223-3.307,10.424,10.424,0,0,0-3.311-2.232c-.193-.078-.393-.154-.594-.225a17.1,17.1,0,0,1,2.539,9.013Zm-5.982,0a21.034,21.034,0,0,0-.422-3.539,14.631,14.631,0,0,0-1.156-3.433,6.627,6.627,0,0,0-1.5-2.064,2.064,2.064,0,0,0-1.309-.564,2.067,2.067,0,0,0-1.3.564,6.7,6.7,0,0,0-1.512,2.064,14.725,14.725,0,0,0-1.146,3.433,20.639,20.639,0,0,0-.422,3.539Zm-10.371,0a17.034,17.034,0,0,1,2.531-9.013c-.2.07-.4.146-.6.225a10.459,10.459,0,0,0-3.309,2.232,10.455,10.455,0,0,0-2.23,3.307,10.515,10.515,0,0,0-.785,3.249Z" transform="translate(-17932 13126.998)" fill="#f07e00"/>
</svg>
