<svg id="Component_19_1" data-name="Component 19 – 1" xmlns="http://www.w3.org/2000/svg" width="70" height="70" viewBox="0 0 70 70">
  <g id="Component_17_1" data-name="Component 17 – 1">
    <rect id="Rectangle_158" data-name="Rectangle 158" width="70" height="70" rx="20" fill="#ffefdc"/>
  </g>
  <path id="Path_80" data-name="Path 80" d="M155.23,29.784a.949.949,0,0,0-.646-.253H144.569a2.523,2.523,0,0,0-2.525,2.515V51.016a2.523,2.523,0,0,0,2.525,2.515h14.951a2.523,2.523,0,0,0,2.525-2.515V36.524a.942.942,0,0,0-.3-.69Zm.1,2.669,3.745,3.479h-3.114a.631.631,0,0,1-.631-.629Zm4.192,19.191H144.569a.631.631,0,0,1-.631-.629V32.046a.631.631,0,0,1,.631-.629h8.865V35.3a2.523,2.523,0,0,0,2.525,2.515h4.192v13.2a.631.631,0,0,1-.631.629Z" transform="translate(-117.044 -6.531)" fill="#f07e00"/>
</svg>
