<svg xmlns="http://www.w3.org/2000/svg" width="26" height="24" viewBox="0 0 26 24">
  <path id="Path_68" data-name="Path 68" d="M101.164,50.227A13.165,13.165,0,0,0,95.2,51.516a4.67,4.67,0,0,0-2.8,3.409v14.33c0,1.605,1.2,2.853,2.791,3.674a13.179,13.179,0,0,0,5.97,1.3,13.977,13.977,0,0,0,5.052-.887,8.2,8.2,0,0,0,3.709.887,8.779,8.779,0,0,0,0-17.547c.013-.822-.009-1.175-.009-1.755a4.852,4.852,0,0,0-2.791-3.409,13.164,13.164,0,0,0-5.961-1.289Zm0,1.773a11.761,11.761,0,0,1,5.228,1.115,3.184,3.184,0,0,1,1.828,1.855c.112,1.049-.982,1.9-1.828,2.34a12.814,12.814,0,0,1-10.456,0c-.876-.566-1.844-1.088-1.837-2.258.088-.606.662-1.33,1.837-1.938A11.761,11.761,0,0,1,101.164,52ZM94.1,58.215a7.434,7.434,0,0,0,1.1.695,13.167,13.167,0,0,0,5.961,1.289,15.43,15.43,0,0,0,2.093-.146,8.848,8.848,0,0,0-1.078,1.855c-.33.025-.672.037-1.016.037a11.76,11.76,0,0,1-5.22-1.106c-1.278-.661-1.846-1.455-1.846-2.111Zm15.826.219a7.023,7.023,0,1,1-6.783,7.019A6.891,6.891,0,0,1,109.925,58.434ZM94.1,61.715a7.393,7.393,0,0,0,1.086.685,13.215,13.215,0,0,0,5.979,1.3c.156,0,.306,0,.459-.009a9.052,9.052,0,0,0-.177,1.764c-.094,0-.188,0-.283,0a11.759,11.759,0,0,1-5.22-1.106c-1.278-.661-1.846-1.455-1.846-2.111Zm0,3.509a7.425,7.425,0,0,0,1.1.685,13.175,13.175,0,0,0,5.97,1.3c.155,0,.308,0,.459-.009a8.914,8.914,0,0,0,.521,1.727c-.319.023-.648.037-.98.037a11.76,11.76,0,0,1-5.22-1.106C94.666,67.2,94.1,66.4,94.1,65.745Zm0,3.509a7.393,7.393,0,0,0,1.086.685,13.215,13.215,0,0,0,5.979,1.3,15.49,15.49,0,0,0,1.9-.119,8.73,8.73,0,0,0,1.334,1.49,13.512,13.512,0,0,1-3.232.384,11.715,11.715,0,0,1-5.211-1.115c-1.279-.661-1.855-1.446-1.855-2.1Z" transform="translate(-92.403 -50.227)" fill="#0072f0"/>
</svg>
