<svg id="Компонент_5_1" data-name="Компонент 5 – 1" xmlns="http://www.w3.org/2000/svg" width="70" height="70" viewBox="0 0 70 70">
  <rect id="Прямоугольник_158" data-name="Прямоугольник 158" width="70" height="70" rx="20" fill="#e6f2ff"/>
  <path id="noun-devices-4468849" d="M108.544,23.049a2.264,2.264,0,0,1,2.264,2.264V35.8a2.264,2.264,0,0,1-2.264,2.264h-5.991a2.264,2.264,0,0,1-2.264-2.264V25.313a2.264,2.264,0,0,1,2.264-2.264Zm0,1.532h-5.991a.732.732,0,0,0-.732.732V35.8a.732.732,0,0,0,.732.732h5.991a.732.732,0,0,0,.732-.732V25.313A.732.732,0,0,0,108.544,24.581Zm-5.991-10.519a2.264,2.264,0,0,1,2.258,2.1l.006.162v3a.766.766,0,0,1-1.525.1l-.007-.1v-3a.732.732,0,0,0-.633-.725l-.1-.007H89.072a.732.732,0,0,0-.725.633l-.007.1V32.8a.732.732,0,0,0,.633.725l.1.007h7.49a.766.766,0,0,1,.1,1.525l-.1.007h-7.49a2.264,2.264,0,0,1-2.258-2.1l-.006-.162V16.326a2.264,2.264,0,0,1,2.1-2.258l.162-.006Z" transform="translate(-63.808 8.938)" fill="#0072f0"/>
</svg>
