<svg id="Component_18_1" data-name="Component 18 – 1" xmlns="http://www.w3.org/2000/svg" width="70" height="70" viewBox="0 0 70 70">
  <rect id="Rectangle_158" data-name="Rectangle 158" width="70" height="70" rx="20" fill="#ffefdc"/>
  <path id="Path_81" data-name="Path 81" d="M-5683.682,3993.418a7.392,7.392,0,0,0-7.418-7.351h-4.8a7.393,7.393,0,0,0-7.418,7.351,1.026,1.026,0,0,1-1.09,1.081,1.027,1.027,0,0,1-1.092-1.081,9.571,9.571,0,0,1,9.6-9.513h4.8a9.642,9.642,0,0,1,9.6,9.513,1.026,1.026,0,0,1-1.091,1.081A1.026,1.026,0,0,1-5683.682,3993.418Zm-15.709-17.081a5.84,5.84,0,0,1,5.891-5.838,5.84,5.84,0,0,1,5.891,5.838,5.84,5.84,0,0,1-5.891,5.838A5.84,5.84,0,0,1-5699.391,3976.337Zm2.182,0a3.662,3.662,0,0,0,3.709,3.676,3.662,3.662,0,0,0,3.709-3.676,3.662,3.662,0,0,0-3.709-3.676A3.662,3.662,0,0,0-5697.209,3976.337Z" transform="translate(5728.5 -3947.5)" fill="#f07e00"/>
</svg>
