<svg xmlns="http://www.w3.org/2000/svg" xmlns:xlink="http://www.w3.org/1999/xlink" width="70" height="70" viewBox="0 0 70 70">
  <defs>
    <clipPath id="clip-path">
      <rect width="70" height="70" fill="none"/>
    </clipPath>
  </defs>
  <g id="Repeat_Grid_2" data-name="Repeat Grid 2" clip-path="url(#clip-path)">
    <g transform="translate(-140 -1042)">
      <g id="Component_3_1" data-name="Component 3 – 1" transform="translate(140 1042)">
        <rect id="Rectangle_158" data-name="Rectangle 158" width="70" height="70" rx="20" fill="#ffefdc"/>
        <path id="Path_62" data-name="Path 62" d="M7105.281-11711.077a.647.647,0,0,0,.65-.61v-13.781a.647.647,0,0,0-.65-.609h-.78a.647.647,0,0,0-.65.609v13.781a.647.647,0,0,0,.65.61h.78m-6.24,0a.647.647,0,0,0,.65-.61v-10.181a.648.648,0,0,0-.65-.61h-.78a.648.648,0,0,0-.65.61v10.181a.647.647,0,0,0,.65.61h.78m-6.24,0a.647.647,0,0,0,.65-.61v-5.681a.648.648,0,0,0-.65-.61h-.78a.648.648,0,0,0-.65.61v5.681a.647.647,0,0,0,.65.61h.78m-6.24,0a.647.647,0,0,0,.65-.61v-2.081a.647.647,0,0,0-.65-.609h-.78a.647.647,0,0,0-.65.609v2.081a.647.647,0,0,0,.65.61h.78m18.72,1.5h-.78a2.2,2.2,0,0,1-2.25-2.109v-13.781a2.2,2.2,0,0,1,2.25-2.109h.78a2.2,2.2,0,0,1,2.25,2.109v13.781A2.2,2.2,0,0,1,7105.281-11709.578Zm-6.24,0h-.78a2.2,2.2,0,0,1-2.25-2.109v-10.181a2.2,2.2,0,0,1,2.25-2.109h.78a2.2,2.2,0,0,1,2.25,2.109v10.181A2.2,2.2,0,0,1,7099.042-11709.578Zm-6.24,0h-.78a2.2,2.2,0,0,1-2.25-2.109v-5.681a2.2,2.2,0,0,1,2.25-2.109h.78a2.2,2.2,0,0,1,2.25,2.109v5.681A2.2,2.2,0,0,1,7092.8-11709.578Zm-6.24,0h-.78a2.2,2.2,0,0,1-2.25-2.109v-2.081a2.2,2.2,0,0,1,2.25-2.109h.78a2.2,2.2,0,0,1,2.25,2.109v2.081A2.2,2.2,0,0,1,7086.561-11709.578Z" transform="translate(-7060.531 11753.578)" fill="#f07e00"/>
      </g>
    </g>
  </g>
</svg>
