<svg xmlns="http://www.w3.org/2000/svg" width="22" height="21.999" viewBox="0 0 22 21.999">
  <path id="Path_90" data-name="Path 90" d="M6877.238-11107a24.3,24.3,0,0,1-8.341-1.352,17.06,17.06,0,0,1-6.3-3.968,17.89,17.89,0,0,1-4.024-6.4,26.844,26.844,0,0,1-1.572-8.533,2.044,2.044,0,0,1,.449-1.2l.017-.024a1.7,1.7,0,0,1,.915-.5l-.006-.022h5.11a1.783,1.783,0,0,1,1.1.411,1.687,1.687,0,0,1,.676,1.105v.022a13.69,13.69,0,0,0,.7,4.106c.086.31.164.6.234.882a.733.733,0,0,1-.179.691l-2.433,2.472a15.972,15.972,0,0,0,6.091,6.21l2.446-2.485a.676.676,0,0,1,.48-.2.753.753,0,0,1,.167.021l.256.067a19.3,19.3,0,0,0,4.273.793h.033a1.618,1.618,0,0,1,1.139.506,1.682,1.682,0,0,1,.525,1.154v0c-.007.864-.012,1.725-.018,2.589l-.015,1.921a1.712,1.712,0,0,1-.514,1.188,2.038,2.038,0,0,1-1.133.539l-.025,0Zm-18.629-20.565a.469.469,0,0,0-.15.074l-.035.052a.256.256,0,0,0-.056.116c.191,6.012,1.937,10.717,5.183,13.981s7.86,4.928,13.689,4.928h.016a.462.462,0,0,0,.239-.127.388.388,0,0,0,.105-.2l.033-4.467a.4.4,0,0,0-.106-.176.353.353,0,0,0-.193-.106h-.028a17.966,17.966,0,0,1-4.371-.777l-.122-.033-2.553,2.6a.687.687,0,0,1-.483.2.628.628,0,0,1-.346-.1,18.081,18.081,0,0,1-7.3-7.44.744.744,0,0,1,.105-.88l2.539-2.588c-.041-.144-.081-.292-.124-.443a15.051,15.051,0,0,1-.737-4.352.814.814,0,0,0-.151-.157.522.522,0,0,0-.277-.125h-4.827Z" transform="translate(-6857 11129.001)" fill="#0600f0"/>
</svg>
