<svg id="Component_12_1" data-name="Component 12 – 1" xmlns="http://www.w3.org/2000/svg" width="70" height="70" viewBox="0 0 70 70">
  <rect id="Rectangle_158" data-name="Rectangle 158" width="70" height="70" rx="20" fill="#ffefdc"/>
  <g id="noun-pause-1738041" transform="translate(-180.063 -254.643)">
    <path id="Path_62" data-name="Path 62" d="M8189.064-12979.356a3,3,0,0,1-3-3v-18a3,3,0,0,1,3-3h12a3,3,0,0,1,3,3v18a3,3,0,0,1-3,3Zm-1.4-21v18a1.4,1.4,0,0,0,1.4,1.4h12a1.4,1.4,0,0,0,1.4-1.4v-18a1.4,1.4,0,0,0-1.4-1.4h-12A1.4,1.4,0,0,0,8187.665-13000.356Zm5.8,15.6a1.6,1.6,0,0,1,1.6-1.6,1.6,1.6,0,0,1,1.6,1.6,1.6,1.6,0,0,1-1.6,1.6A1.6,1.6,0,0,1,8193.464-12984.758Z" transform="translate(-7980 13281)" fill="#f07e00"/>
  </g>
</svg>
