<svg id="Component_7_1" data-name="Component 7 – 1" xmlns="http://www.w3.org/2000/svg" width="70" height="70" viewBox="0 0 70 70">
  <rect id="Rectangle_158" data-name="Rectangle 158" width="70" height="70" rx="20" fill="#ffefdc"/>
  <path id="Path_65" data-name="Path 65" d="M6879.078-11105a26.5,26.5,0,0,1-9.1-1.476,18.6,18.6,0,0,1-6.873-4.329,19.516,19.516,0,0,1-4.39-6.981,29.285,29.285,0,0,1-1.714-9.31,2.231,2.231,0,0,1,.489-1.306l.02-.025a1.847,1.847,0,0,1,1-.549l-.005-.024h5.574a1.942,1.942,0,0,1,1.2.448,1.838,1.838,0,0,1,.736,1.205v.025a14.969,14.969,0,0,0,.766,4.48c.094.338.179.656.256.962a.8.8,0,0,1-.2.753l-2.653,2.7a17.421,17.421,0,0,0,6.645,6.774l2.668-2.712a.742.742,0,0,1,.524-.22.825.825,0,0,1,.182.022l.28.074a21.032,21.032,0,0,0,4.662.865h.036a1.767,1.767,0,0,1,1.242.552,1.835,1.835,0,0,1,.574,1.259v.006c-.008.942-.013,1.882-.019,2.824l-.017,2.1a1.871,1.871,0,0,1-.561,1.3,2.228,2.228,0,0,1-1.236.588l-.027,0Zm-20.321-22.437a.488.488,0,0,0-.165.082c-.014.02-.025.038-.039.055a.29.29,0,0,0-.061.127c.208,6.56,2.113,11.692,5.654,15.253s8.574,5.376,14.934,5.376h.016a.5.5,0,0,0,.261-.138.43.43,0,0,0,.115-.217l.036-4.874a.423.423,0,0,0-.115-.191.38.38,0,0,0-.211-.116h-.03a19.6,19.6,0,0,1-4.769-.849l-.132-.035-2.785,2.84a.745.745,0,0,1-.527.217.685.685,0,0,1-.377-.107,19.723,19.723,0,0,1-7.967-8.117.81.81,0,0,1,.115-.959l2.77-2.824c-.044-.156-.088-.318-.135-.483a16.409,16.409,0,0,1-.8-4.747.9.9,0,0,0-.165-.171.565.565,0,0,0-.3-.137h-5.266Z" transform="translate(-6834 11151.999)" fill="#f07e00"/>
</svg>
