<svg id="Компонент_2_1" data-name="Компонент 2 – 1" xmlns="http://www.w3.org/2000/svg" width="70" height="70" viewBox="0 0 70 70">
  <rect id="Прямоугольник_158" data-name="Прямоугольник 158" width="70" height="70" rx="20" fill="#ffefdc"/>
  <path id="noun-play-1341360" d="M202.146,134.717a1.955,1.955,0,0,0-1.074.321l-.079.051a2.84,2.84,0,0,0-1.057,2.4v15.25a2.846,2.846,0,0,0,1.05,2.4l.083.053a1.971,1.971,0,0,0,1.077.323,3.13,3.13,0,0,0,1.43-.384l15.549-8.028a2.456,2.456,0,0,0,1.507-1.963v-.05a2.464,2.464,0,0,0-1.509-1.964L203.576,135.1a3.13,3.13,0,0,0-1.43-.384m0-1.6a4.7,4.7,0,0,1,2.164.562l15.548,8.027a3.932,3.932,0,0,1,2.374,3.357l.1.053-.1.053a3.927,3.927,0,0,1-2.374,3.357l-15.548,8.027a4.7,4.7,0,0,1-2.164.562,3.56,3.56,0,0,1-1.94-.576l-.024.013v-.026a4.384,4.384,0,0,1-1.846-3.786v-15.25a4.383,4.383,0,0,1,1.846-3.786v-.027l.024.013A3.545,3.545,0,0,1,202.146,133.117Z" transform="translate(-174.336 -110.117)" fill="#f07e00"/>
</svg>
