<svg xmlns="http://www.w3.org/2000/svg" width="19" height="22" viewBox="0 0 19 22">
  <path id="Path_89" data-name="Path 89" d="M176.059,77.121a3.852,3.852,0,0,0-2.692,1.065l-4.721-3a3.8,3.8,0,0,0,0-2.4l4.682-3.036a3.868,3.868,0,0,0,2.77,1.143,3.943,3.943,0,1,0-3.9-3.943,3.2,3.2,0,0,0,.156,1.065l-4.721,3.075a4.342,4.342,0,0,0-2.731-1.025,3.943,3.943,0,0,0,0,7.885,3.852,3.852,0,0,0,2.692-1.065l4.721,3a4.171,4.171,0,0,0-.2,1.183,3.9,3.9,0,1,0,7.8,0,3.876,3.876,0,0,0-3.862-3.942ZM164.9,75.978a1.972,1.972,0,1,1,1.951-1.971A1.942,1.942,0,0,1,164.9,75.978Z" transform="translate(-160.999 -63.006)" fill="#7e00f0"/>
</svg>
