<svg xmlns="http://www.w3.org/2000/svg" width="22" height="22" viewBox="0 0 22 22">
  <path id="Path_91" data-name="Path 91" d="M14287.886-13689.855a1.045,1.045,0,0,1-1.045-1.045,7.214,7.214,0,0,0-2.125-5.119,7.186,7.186,0,0,0-5.113-2.127,1.047,1.047,0,0,1-1.045-1.049,1.048,1.048,0,0,1,1.047-1.045,9.279,9.279,0,0,1,6.592,2.738,9.315,9.315,0,0,1,2.736,6.6,1.047,1.047,0,0,1-1.045,1.049Zm11.6,0a1.046,1.046,0,0,1-1.045-1.045,18.762,18.762,0,0,0-5.521-13.332,18.716,18.716,0,0,0-13.316-5.529,1.047,1.047,0,0,1-1.045-1.047,1.046,1.046,0,0,1,1.047-1.047,20.794,20.794,0,0,1,14.793,6.143,20.837,20.837,0,0,1,6.133,14.809A1.046,1.046,0,0,1,14299.485-13689.855Zm-5.689,0a1.045,1.045,0,0,1-1.045-1.047,13.084,13.084,0,0,0-3.848-9.311,13.054,13.054,0,0,0-9.3-3.854h0a1.045,1.045,0,0,1-1.047-1.045,1.047,1.047,0,0,1,1.045-1.049,15.107,15.107,0,0,1,10.777,4.469,15.163,15.163,0,0,1,4.463,10.791,1.046,1.046,0,0,1-1.045,1.045Zm-15.266-2.381a2.369,2.369,0,0,1,2.367-2.369,2.368,2.368,0,0,1,2.365,2.369,2.368,2.368,0,0,1-2.365,2.367A2.368,2.368,0,0,1,14278.53-13692.236Z" transform="translate(-14278.53 13711.855)" fill="#f00600"/>
</svg>
