<svg xmlns="http://www.w3.org/2000/svg" width="19.003" height="19" viewBox="0 0 19.003 19">
  <path id="Path_96" data-name="Path 96" d="M93.957,39.778a1.338,1.338,0,0,0,1.653,1.748l1.787-.557h0a1.375,1.375,0,0,1,1.027.065A9.363,9.363,0,0,0,102.77,42.1a9.887,9.887,0,0,0,2-.207,9.5,9.5,0,1,0-10.312-4.7,1.3,1.3,0,0,1,.06,1.1Zm8.386-11.706a.432.432,0,0,1,.863,0v6.116a.432.432,0,0,1-.863,0Zm.432,7.976a.863.863,0,1,1-.61.253A.863.863,0,0,1,102.775,36.049Z" transform="translate(-93.277 -23.1)" fill="#f07e00"/>
</svg>
