<svg xmlns="http://www.w3.org/2000/svg" width="17" height="16.996" viewBox="0 0 17 16.996">
  <path id="instagram" d="M8.427,35.965a4.358,4.358,0,1,0,4.358,4.358A4.351,4.351,0,0,0,8.427,35.965Zm0,7.191a2.833,2.833,0,1,1,2.833-2.833,2.838,2.838,0,0,1-2.833,2.833Zm5.552-7.369a1.016,1.016,0,1,1-1.016-1.016A1.014,1.014,0,0,1,13.979,35.787Zm2.886,1.032a5.03,5.03,0,0,0-1.373-3.561,5.063,5.063,0,0,0-3.561-1.373c-1.4-.08-5.609-.08-7.012,0a5.056,5.056,0,0,0-3.561,1.369A5.046,5.046,0,0,0-.015,36.815c-.08,1.4-.08,5.609,0,7.012a5.03,5.03,0,0,0,1.373,3.561,5.069,5.069,0,0,0,3.561,1.373c1.4.08,5.609.08,7.012,0a5.03,5.03,0,0,0,3.561-1.373,5.063,5.063,0,0,0,1.373-3.561C16.945,42.424,16.945,38.222,16.865,36.819Zm-1.813,8.514a2.868,2.868,0,0,1-1.616,1.616c-1.119.444-3.774.341-5.01.341s-3.895.1-5.01-.341A2.868,2.868,0,0,1,1.8,45.333c-.444-1.119-.341-3.774-.341-5.01s-.1-3.895.341-5.01A2.868,2.868,0,0,1,3.417,33.7c1.119-.444,3.774-.341,5.01-.341s3.895-.1,5.01.341a2.868,2.868,0,0,1,1.616,1.616c.444,1.119.341,3.774.341,5.01S15.5,44.218,15.052,45.333Z" transform="translate(0.075 -31.825)" fill="#959595"/>
</svg>
