<svg xmlns="http://www.w3.org/2000/svg" width="80" height="17" viewBox="0 0 80 17">
  <path id="logilogo" d="M-5597.163-49.019a4.737,4.737,0,0,1-1.758-1.375.762.762,0,0,1-.188-.472.733.733,0,0,1,.355-.607.871.871,0,0,1,.474-.15.836.836,0,0,1,.693.354,2.972,2.972,0,0,0,1.149.9,3.8,3.8,0,0,0,1.573.312,2.922,2.922,0,0,0,1.506-.4,2.858,2.858,0,0,0,1.083-1.164,3.878,3.878,0,0,0,.405-1.83v-.826a3.908,3.908,0,0,1-1.387,1.45,3.679,3.679,0,0,1-1.945.523,4.242,4.242,0,0,1-2.241-.6,4.1,4.1,0,0,1-1.539-1.661,5.172,5.172,0,0,1-.549-2.411,4.9,4.9,0,0,1,.592-2.428,4.232,4.232,0,0,1,1.657-1.661,4.847,4.847,0,0,1,2.417-.6,4.772,4.772,0,0,1,2.393.6,4.425,4.425,0,0,1,.612.417l-.012-1h1.654v4.472c0,.066,0,.132,0,.2v3.643a5.036,5.036,0,0,1-.592,2.428,4.389,4.389,0,0,1-1.666,1.728,4.689,4.689,0,0,1-2.429.633,5.374,5.374,0,0,1-2.264-.481Zm.754-10.717a2.851,2.851,0,0,0-1.075,1.13,3.412,3.412,0,0,0-.389,1.636,3.361,3.361,0,0,0,.389,1.627,2.861,2.861,0,0,0,1.075,1.122,2.979,2.979,0,0,0,1.546.4,2.98,2.98,0,0,0,1.547-.4,2.808,2.808,0,0,0,1.066-1.121,3.422,3.422,0,0,0,.38-1.627,3.481,3.481,0,0,0-.38-1.636,2.787,2.787,0,0,0-1.066-1.13,2.981,2.981,0,0,0-1.547-.4,2.978,2.978,0,0,0-1.546.4Zm42.432,6.949a3.566,3.566,0,0,1-1.454-1.475,4.836,4.836,0,0,1-.524-2.336v-5.009h1.725V-56.6a2.719,2.719,0,0,0,.735,2.066,2.716,2.716,0,0,0,1.953.7,2.889,2.889,0,0,0,1.293-.287,2.287,2.287,0,0,0,.913-.776,1.919,1.919,0,0,0,.33-1.1v-5.616h1.725v8.381a.846.846,0,0,1-.236.616.83.83,0,0,1-.625.244.836.836,0,0,1-.617-.244.837.837,0,0,1-.246-.616v-.186a3.753,3.753,0,0,1-1.285.834,4.271,4.271,0,0,1-1.59.3,4.315,4.315,0,0,1-2.1-.506Zm11.491-.127a4.439,4.439,0,0,1-1.682-1.686,4.738,4.738,0,0,1-.61-2.386,5.033,5.033,0,0,1,.565-2.386,4.271,4.271,0,0,1,1.556-1.678,4.137,4.137,0,0,1,2.207-.607,4.178,4.178,0,0,1,1.827.4,4.144,4.144,0,0,1,1.437,1.13v-5.415h1.725v12.311a.861.861,0,0,1-.862.86.861.861,0,0,1-.863-.86l0-.079a4.7,4.7,0,0,1-.57.391,4.6,4.6,0,0,1-2.359.616,4.688,4.688,0,0,1-2.374-.616Zm.845-6.813a2.982,2.982,0,0,0-1.082,1.13,3.256,3.256,0,0,0-.4,1.611,3.3,3.3,0,0,0,.4,1.619,2.96,2.96,0,0,0,1.082,1.138,2.906,2.906,0,0,0,1.531.413,2.906,2.906,0,0,0,1.53-.413,2.9,2.9,0,0,0,1.074-1.138,3.37,3.37,0,0,0,.39-1.619,3.325,3.325,0,0,0-.39-1.611,2.913,2.913,0,0,0-1.074-1.13,2.9,2.9,0,0,0-1.53-.413,2.9,2.9,0,0,0-1.529.412Zm-23.852,6.83a4.235,4.235,0,0,1-1.656-1.661,4.879,4.879,0,0,1-.592-2.411,4.906,4.906,0,0,1,.592-2.428,4.234,4.234,0,0,1,1.656-1.661,4.854,4.854,0,0,1,2.418-.6,4.77,4.77,0,0,1,2.393.6,4.307,4.307,0,0,1,1.657,1.661,4.85,4.85,0,0,1,.6,2.428,4.879,4.879,0,0,1-.591,2.411,4.253,4.253,0,0,1-1.648,1.661,4.8,4.8,0,0,1-2.41.6,4.85,4.85,0,0,1-2.418-.6Zm.871-6.838a2.844,2.844,0,0,0-1.073,1.13,3.4,3.4,0,0,0-.389,1.636,3.344,3.344,0,0,0,.389,1.627,2.864,2.864,0,0,0,1.073,1.121,2.984,2.984,0,0,0,1.547.4,2.98,2.98,0,0,0,1.547-.4,2.8,2.8,0,0,0,1.065-1.121,3.422,3.422,0,0,0,.381-1.627,3.469,3.469,0,0,0-.381-1.636,2.785,2.785,0,0,0-1.065-1.13,2.982,2.982,0,0,0-1.547-.4,2.981,2.981,0,0,0-1.544.4Zm-16.073,6.83a4.332,4.332,0,0,1-1.666-1.678,4.8,4.8,0,0,1-.6-2.386,4.981,4.981,0,0,1,.582-2.42,4.2,4.2,0,0,1,1.632-1.67,4.691,4.691,0,0,1,2.367-.6,4.207,4.207,0,0,1,3.314,1.518.632.632,0,0,1,.169.439.739.739,0,0,1-.372.624.664.664,0,0,1-.389.118.853.853,0,0,1-.66-.3,2.681,2.681,0,0,0-.921-.666,2.905,2.905,0,0,0-1.141-.211,2.761,2.761,0,0,0-2.114.869,3.242,3.242,0,0,0-.812,2.3,3.422,3.422,0,0,0,.381,1.627,2.806,2.806,0,0,0,1.065,1.121,3.013,3.013,0,0,0,1.563.4,2.814,2.814,0,0,0,1.86-.59,1.064,1.064,0,0,1,.625-.236.721.721,0,0,1,.44.15.785.785,0,0,1,.32.607.627.627,0,0,1-.2.455,4.3,4.3,0,0,1-3.044,1.13,4.762,4.762,0,0,1-2.4-.606Zm-28.088.008a4.237,4.237,0,0,1-1.657-1.661,4.868,4.868,0,0,1-.592-2.411,4.906,4.906,0,0,1,.592-2.428,4.239,4.239,0,0,1,1.657-1.661,4.854,4.854,0,0,1,2.418-.6,4.771,4.771,0,0,1,2.393.6,4.31,4.31,0,0,1,1.657,1.661,4.845,4.845,0,0,1,.6,2.428,4.873,4.873,0,0,1-.592,2.411,4.247,4.247,0,0,1-1.649,1.661,4.8,4.8,0,0,1-2.411.6,4.851,4.851,0,0,1-2.415-.6Zm.871-6.838a2.846,2.846,0,0,0-1.074,1.13,3.407,3.407,0,0,0-.389,1.636,3.355,3.355,0,0,0,.389,1.627,2.859,2.859,0,0,0,1.074,1.121,2.981,2.981,0,0,0,1.546.4,2.986,2.986,0,0,0,1.549-.4,2.805,2.805,0,0,0,1.065-1.121,3.428,3.428,0,0,0,.38-1.627,3.469,3.469,0,0,0-.38-1.636,2.793,2.793,0,0,0-1.065-1.13,2.987,2.987,0,0,0-1.548-.4,2.982,2.982,0,0,0-1.546.4Zm37.769,7.369a2.277,2.277,0,0,1-1.31-.4,2.569,2.569,0,0,1-.9-1.113,3.886,3.886,0,0,1-.322-1.61V-65.538h1.691v10.052a2.017,2.017,0,0,0,.237,1.029.7.7,0,0,0,.609.4h.423a.7.7,0,0,1,.55.236.872.872,0,0,1,.211.607.721.721,0,0,1-.322.607,1.361,1.361,0,0,1-.828.236Zm-17-.244a.835.835,0,0,1-.245-.616v-8.365h1.725v8.365a.851.851,0,0,1-.237.616.83.83,0,0,1-.625.245.839.839,0,0,1-.618-.244Zm-25.779.244a2.283,2.283,0,0,1-1.312-.4,2.579,2.579,0,0,1-.9-1.113,3.879,3.879,0,0,1-.322-1.61V-65.538h1.691v10.052a2.017,2.017,0,0,0,.237,1.029.7.7,0,0,0,.609.4h.423a.7.7,0,0,1,.549.236.88.88,0,0,1,.211.607.723.723,0,0,1-.322.607,1.361,1.361,0,0,1-.829.236Zm25.61-11.054a1.072,1.072,0,0,1-.33-.784,1.072,1.072,0,0,1,.33-.784,1.075,1.075,0,0,1,.787-.329,1.073,1.073,0,0,1,.785.329,1.067,1.067,0,0,1,.33.784,1.067,1.067,0,0,1-.33.784,1.074,1.074,0,0,1-.786.329,1.074,1.074,0,0,1-.786-.33Z" transform="translate(5615.462 65.538)" fill="#919598"/>
</svg>
