<svg width="185" height="18" viewBox="0 0 185 18" fill="none" xmlns="http://www.w3.org/2000/svg">
<path d="M0.00212134 8.66617C-0.0315058 6.26795 0.834392 4.21595 2.59982 2.51017C4.36524 0.787506 6.45853 -0.0484952 8.87968 0.00217143C10.4602 0.00217143 11.8893 0.373728 13.1671 1.11684C14.4618 1.84306 15.479 2.85639 16.2188 4.15684L13.6463 5.98084C12.4526 4.10617 10.8637 3.16884 8.87968 3.16884C7.33283 3.16884 6.04659 3.6924 5.02097 4.73951C4.01215 5.78662 3.50775 7.10395 3.50775 8.69151C3.50775 10.2791 4.01215 11.588 5.02097 12.6182C6.04659 13.6484 7.33283 14.1635 8.87968 14.1635C10.8637 14.1635 12.4526 13.2262 13.6463 11.3515L16.2188 13.1755C15.4958 14.476 14.487 15.4977 13.1924 16.2408C11.8977 16.9671 10.4517 17.3302 8.85446 17.3302C6.41649 17.3808 4.3148 16.5533 2.54937 14.8475C0.800765 13.1248 -0.0483193 11.0644 0.00212134 8.66617ZM25.3446 8.66617C25.3109 6.28484 26.1684 4.23284 27.917 2.51017C29.6825 0.787506 31.7673 -0.0484952 34.1717 0.00217143C36.576 -0.0484952 38.6609 0.787506 40.4263 2.51017C42.2087 4.23284 43.0829 6.28484 43.0492 8.66617C43.0829 11.0475 42.2087 13.0995 40.4263 14.8222C38.6609 16.5448 36.576 17.3808 34.1717 17.3302C31.7673 17.3808 29.6825 16.5448 27.917 14.8222C26.1684 13.0995 25.3109 11.0475 25.3446 8.66617ZM39.5436 8.66617C39.5436 7.07862 39.0308 5.76973 38.0052 4.73951C36.9964 3.6924 35.7269 3.16884 34.1969 3.16884C32.65 3.16884 31.3722 3.68395 30.3634 4.71417C29.3546 5.7444 28.8502 7.06173 28.8502 8.66617C28.8502 10.2706 29.3546 11.588 30.3634 12.6182C31.3722 13.6484 32.65 14.1635 34.1969 14.1635C35.7269 14.1635 36.9964 13.6484 38.0052 12.6182C39.0308 11.588 39.5436 10.2706 39.5436 8.66617ZM53.2463 17.0262V0.306172H56.6511V13.9355H63.9398V17.0262H53.2463ZM73.7862 17.0262V0.306172H77.1909V17.0262H73.7862ZM101.204 12.1115C101.204 13.5471 100.691 14.7293 99.6656 15.6582C98.64 16.5702 97.3285 17.0262 95.7312 17.0262H88.3165V0.306172H94.218C95.7649 0.306172 97.0259 0.745284 98.0011 1.62351C98.9931 2.48484 99.4891 3.59951 99.4891 4.96751C99.4891 6.2004 99.0771 7.20528 98.2533 7.98217C100.22 8.7084 101.204 10.0848 101.204 12.1115ZM93.9406 3.24484H91.5951V7.07017H93.9406C94.63 7.07017 95.1596 6.90128 95.5295 6.56351C95.9162 6.22573 96.1096 5.75284 96.1096 5.14484C96.1096 4.55373 95.9162 4.08928 95.5295 3.75151C95.1596 3.41373 94.63 3.24484 93.9406 3.24484ZM97.8497 11.9848C97.8497 11.3431 97.6396 10.8364 97.2192 10.4648C96.7989 10.0764 96.2188 9.88217 95.479 9.88217H91.5951V14.0875H95.479C96.2188 14.0875 96.7989 13.9017 97.2192 13.5302C97.6396 13.1586 97.8497 12.6435 97.8497 11.9848ZM125.342 17.0262H121.508L117.196 11.1235H114.699V17.0262H111.294V0.306172H117.549C119.297 0.306172 120.735 0.804395 121.861 1.80084C122.988 2.79728 123.551 4.09773 123.551 5.70217C123.551 6.74928 123.291 7.69506 122.769 8.53951C122.265 9.36706 121.55 10.0088 120.626 10.4648L125.342 17.0262ZM114.699 3.32084V8.10884H117.549C118.339 8.10884 118.953 7.88928 119.39 7.45017C119.844 7.01106 120.071 6.4284 120.071 5.70217C120.071 4.99284 119.835 4.41862 119.365 3.97951C118.911 3.54039 118.305 3.32084 117.549 3.32084H114.699ZM134.741 17.0262V0.306172H138.145V17.0262H134.741ZM153.029 17.0262V3.39684H147.707V0.306172H161.78V3.39684H156.433V17.0262H153.029ZM184.729 0.306172L179.004 10.4395V17.0262H175.6V10.4648L169.849 0.306172H173.633L177.315 6.94351L180.972 0.306172H184.729Z" fill="#1F1F1F"/>
</svg>
