<svg xmlns="http://www.w3.org/2000/svg" width="50" height="50.001" viewBox="0 0 50 50.001">
  <path id="up_button" data-name="up button" d="M17829-13218a24.848,24.848,0,0,1-9.732-1.965,24.929,24.929,0,0,1-7.947-5.357,24.89,24.89,0,0,1-5.357-7.948A24.855,24.855,0,0,1,17804-13243a24.841,24.841,0,0,1,1.965-9.729,24.95,24.95,0,0,1,5.357-7.947,24.926,24.926,0,0,1,7.947-5.356A24.848,24.848,0,0,1,17829-13268a24.822,24.822,0,0,1,9.729,1.965,24.926,24.926,0,0,1,7.947,5.356,24.95,24.95,0,0,1,5.357,7.947A24.841,24.841,0,0,1,17854-13243a24.862,24.862,0,0,1-1.965,9.732,24.912,24.912,0,0,1-5.357,7.948,24.929,24.929,0,0,1-7.947,5.357A24.822,24.822,0,0,1,17829-13218Zm0-25.863h0s.266.289,1.328,1.452l2.924,3.2a.622.622,0,0,0,.465.212.618.618,0,0,0,.463-.212l.627-.686a.787.787,0,0,0,0-1.026l-5.342-5.865a.629.629,0,0,0-.467-.212.63.63,0,0,0-.469.212l-5.336,5.865a.778.778,0,0,0,0,1.026l.623.686a.618.618,0,0,0,.463.212.63.63,0,0,0,.469-.212l4.252-4.65Z" transform="translate(-17804 13268)" fill="#f07e00"/>
</svg>
