<svg xmlns="http://www.w3.org/2000/svg" width="19" height="19" viewBox="0 0 19 19">
  <path id="Контур_57" data-name="Контур 57" d="M14286.609-13692.855a.9.9,0,0,1-.9-.9,6.231,6.231,0,0,0-1.834-4.422,6.216,6.216,0,0,0-4.417-1.837.9.9,0,0,1-.9-.905.9.9,0,0,1,.9-.9,8.013,8.013,0,0,1,5.691,2.365,8.033,8.033,0,0,1,2.363,5.7.9.9,0,0,1-.9.905Zm10.019,0a.9.9,0,0,1-.9-.9,16.207,16.207,0,0,0-4.769-11.514,16.163,16.163,0,0,0-11.5-4.774.9.9,0,0,1-.9-.9.9.9,0,0,1,.9-.9,17.955,17.955,0,0,1,12.775,5.3,18,18,0,0,1,5.3,12.79A.9.9,0,0,1,14296.628-13692.855Zm-4.913,0a.9.9,0,0,1-.9-.9,11.3,11.3,0,0,0-3.324-8.04,11.261,11.261,0,0,0-8.03-3.328h0a.9.9,0,0,1-.9-.9.9.9,0,0,1,.9-.905,13.053,13.053,0,0,1,9.308,3.858,13.091,13.091,0,0,1,3.854,9.319.9.9,0,0,1-.9.9Zm-13.184-2.057a2.044,2.044,0,0,1,2.043-2.045,2.044,2.044,0,0,1,2.043,2.045,2.044,2.044,0,0,1-2.043,2.045A2.044,2.044,0,0,1,14278.531-13694.912Z" transform="translate(-14278.531 13711.855)"/>
</svg>
