<svg xmlns="http://www.w3.org/2000/svg" width="10.998" height="13" viewBox="0 0 10.998 13">
  <path id="Контур_42" data-name="Контур 42" d="M17100.3-13044.993a1.8,1.8,0,0,1-1.744-2.106,4.476,4.476,0,0,1,4.377-3.831h2.211a4.462,4.462,0,0,1,4.344,3.731l.016.066a1.809,1.809,0,0,1-1.742,2.14Zm1.469-7.712-.016-.018a3.079,3.079,0,0,1-.244-3.98,3.236,3.236,0,0,1,5.119-.066,3.064,3.064,0,0,1-.24,4.1l-.033.033a3.223,3.223,0,0,1-2.258.925A3.245,3.245,0,0,1,17101.768-13052.705Z" transform="translate(-17098.531 13057.993)" fill="#f07e00"/>
</svg>
